<svg width="110" height="59" viewBox="0 0 110 59" fill="none" xmlns="http://www.w3.org/2000/svg">
<path d="M28.8828 0.607422H30.9704V23.4275H28.8828V0.607422Z" fill="#00A05B"/>
<path d="M41.3689 2.81485H36.3292V0.607422H48.6814V2.81485H43.4688V23.4275H41.3689V2.81485Z" fill="#00A05B"/>
<path d="M57.6471 0.607422H60.5252L67.1336 23.4275H64.8978L63.0203 16.7306H55.4114L53.6326 23.4275H51.4587L57.6471 0.607422ZM62.4274 14.5978L59.0923 2.62096L58.7094 4.32128L55.9796 14.5978H62.4274Z" fill="#00A05B"/>
<path d="M72.6283 0.607422H74.7282V21.235H82.2136V23.4275H72.6283V0.607422Z" fill="#00A05B"/>
<path d="M7.88612 56.5788C9.22839 56.5788 10.5789 56.2655 11.9376 55.6391L12.4811 57.6974C11.8553 58.0752 11.1018 58.3387 10.2207 58.4879C9.33956 58.647 8.56138 58.7265 7.88612 58.7265H7.71319C4.78161 58.7265 2.81762 57.7123 1.82121 55.6839C1.21183 54.4509 0.841269 52.7903 0.709512 50.7022C0.651869 49.6979 0.623047 48.5992 0.623047 47.406C0.623047 46.2128 0.647751 45.0792 0.69716 44.0053C0.754803 42.9215 0.865973 41.9322 1.03067 41.0372C1.19536 40.1324 1.43417 39.327 1.74709 38.621C2.06002 37.915 2.47999 37.3184 3.00702 36.8312C4.07754 35.817 5.63391 35.3099 7.67614 35.3099C8.9937 35.3099 10.0519 35.4143 10.8506 35.6231C11.6577 35.8219 12.2012 35.986 12.4811 36.1153L11.9253 38.4719C10.3195 37.7957 8.94429 37.4576 7.79966 37.4576C6.66326 37.4576 5.78626 37.6267 5.16865 37.9647C4.55927 38.2929 4.08166 38.8398 3.73579 39.6054C3.13466 40.9179 2.83409 43.4187 2.83409 47.1077V48.2114C2.83409 51.2441 3.15936 53.3621 3.80991 54.5652C4.53457 55.9076 5.85625 56.5788 7.77496 56.5788H7.88612Z" fill="#515151"/>
<path d="M18.05 35.6082H28.7593V37.8156H20.1499V45.6908H27.0918V47.8833H20.1499V56.2357H29.0928V58.4282H18.05V35.6082Z" fill="#515151"/>
<path d="M36.4033 35.6082H39.6273L43.9258 52.4622L44.6546 56.1015L45.3587 52.4473L49.509 35.6082H52.5847L55.6357 58.4282H53.5358L51.2383 41.1864L50.8924 37.1593L50.139 41.2162L45.8775 58.4133H43.4441L38.9973 41.1267L38.1203 37.1593L37.7003 41.1566L35.6128 58.4282H33.4882L36.4033 35.6082Z" fill="#515151"/>
<path d="M62.2174 35.6082H72.9267V37.8156H64.3173V45.6908H71.2592V47.8833H64.3173V56.2357H73.2602V58.4282H62.2174V35.6082Z" fill="#515151"/>
<path d="M79.0144 35.6082H80.6819L89.3779 52.1937L90.5019 55.0127L90.2302 51.8805V35.6082H92.1448V58.4282H90.3784L81.7442 41.8874L80.6572 39.322L80.929 42.3647V58.4282H79.0144V35.6082Z" fill="#515151"/>
<path d="M102.284 37.8156H97.2442V35.6082H109.596V37.8156H104.384V58.4282H102.284V37.8156Z" fill="#515151"/>
</svg>
