<svg width="1600" height="900" viewBox="0 0 1600 900" fill="none" xmlns="http://www.w3.org/2000/svg">
  <defs>
    <linearGradient id="bg" x1="0" y1="0" x2="1" y2="1">
      <stop offset="0" stop-color="#0F2C2A" />
      <stop offset="0.55" stop-color="#124C46" />
      <stop offset="1" stop-color="#1B6A5E" />
    </linearGradient>
    <radialGradient id="glow1" cx="0" cy="0" r="1" gradientTransform="translate(340 220) rotate(25) scale(520 320)">
      <stop offset="0" stop-color="#9BE8D8" stop-opacity="0.45" />
      <stop offset="1" stop-color="#9BE8D8" stop-opacity="0" />
    </radialGradient>
    <radialGradient id="glow2" cx="0" cy="0" r="1" gradientTransform="translate(1280 640) rotate(-10) scale(620 380)">
      <stop offset="0" stop-color="#7AD0C3" stop-opacity="0.35" />
      <stop offset="1" stop-color="#7AD0C3" stop-opacity="0" />
    </radialGradient>
    <filter id="blur" x="-20%" y="-20%" width="140%" height="140%">
      <feGaussianBlur stdDeviation="40" />
    </filter>
  </defs>

  <rect width="1600" height="900" fill="url(#bg)" />
  <g filter="url(#blur)">
    <circle cx="340" cy="220" r="260" fill="url(#glow1)" />
    <circle cx="1280" cy="640" r="310" fill="url(#glow2)" />
  </g>

  <g opacity="0.18" stroke="#D7FFF3" stroke-width="1">
    <path d="M-20 640 C 260 560, 420 760, 720 700 C 980 650, 1160 520, 1620 600" />
    <path d="M-40 320 C 280 240, 520 420, 820 360 C 1080 310, 1240 220, 1640 260" />
  </g>

  <g opacity="0.16" fill="#B7F5E4">
    <circle cx="1080" cy="200" r="3" />
    <circle cx="1180" cy="260" r="2" />
    <circle cx="980" cy="280" r="2" />
    <circle cx="420" cy="640" r="2" />
    <circle cx="520" cy="700" r="3" />
    <circle cx="620" cy="660" r="2" />
  </g>
</svg>
